<svg xmlns="http://www.w3.org/2000/svg" xmlns:xlink="http://www.w3.org/1999/xlink" width="100" zoomAndPan="magnify" viewBox="0 0 75 74.999997" height="100" preserveAspectRatio="xMidYMid meet" version="1.0"><defs><clipPath id="d8f83ab500"><path d="M 13.359375 0 L 61.359375 0 L 61.359375 75 L 13.359375 75 Z M 13.359375 0 " clip-rule="nonzero"/></clipPath></defs><g clip-path="url(#d8f83ab500)"><path fill="#284b63" d="M 59.894531 42.070312 C 58.742188 39.945312 57.25 38.222656 55.417969 36.910156 C 53.585938 35.59375 51.503906 34.59375 49.179688 33.90625 C 46.859375 33.21875 44.5 32.664062 42.117188 32.25 L 42.117188 18.34375 C 47.144531 18.59375 52.570312 19.761719 58.390625 21.851562 L 58.390625 9.449219 C 56.007812 8.53125 53.394531 7.8125 50.539062 7.289062 C 47.683594 6.769531 44.878906 6.417969 42.117188 6.25 L 42.117188 0 L 33.105469 0 L 33.105469 6.449219 C 30.046875 6.828125 27.292969 7.492188 24.855469 8.449219 C 22.417969 9.414062 20.347656 10.667969 18.648438 12.238281 C 16.945312 13.800781 15.640625 15.664062 14.734375 17.8125 C 13.828125 19.957031 13.375 22.414062 13.375 25.164062 C 13.375 28.546875 13.960938 31.300781 15.136719 33.433594 C 16.304688 35.558594 17.828125 37.273438 19.699219 38.566406 C 21.570312 39.859375 23.679688 40.832031 26.023438 41.480469 C 28.367188 42.128906 30.726562 42.640625 33.105469 43.011719 L 33.105469 56.722656 C 31.179688 56.683594 29.40625 56.566406 27.777344 56.378906 C 26.148438 56.1875 24.597656 55.941406 23.125 55.625 C 21.648438 55.3125 20.210938 54.9375 18.816406 54.5 C 17.414062 54.0625 15.980469 53.550781 14.507812 52.96875 L 14.507812 65.234375 C 16.660156 66.316406 19.371094 67.164062 22.640625 67.769531 C 25.914062 68.375 29.398438 68.742188 33.101562 68.867188 L 33.101562 75 L 42.113281 75 L 42.113281 68.550781 C 48.347656 67.800781 53.152344 65.902344 56.542969 62.855469 C 59.921875 59.808594 61.617188 55.609375 61.617188 50.273438 C 61.625 46.929688 61.046875 44.195312 59.894531 42.070312 Z M 33.105469 30.671875 C 30.644531 30.175781 28.8125 29.460938 27.609375 28.546875 C 26.394531 27.632812 25.789062 26.296875 25.789062 24.539062 C 25.789062 22.988281 26.316406 21.710938 27.375 20.6875 C 28.433594 19.667969 30.339844 18.988281 33.101562 18.652344 L 33.101562 30.671875 Z M 42.117188 56.28125 L 42.117188 44.511719 C 44.5 44.972656 46.265625 45.648438 47.421875 46.546875 C 48.574219 47.445312 49.152344 48.769531 49.152344 50.519531 C 49.152344 53.691406 46.808594 55.609375 42.117188 56.28125 Z M 42.117188 56.28125 " fill-opacity="1" fill-rule="nonzero"/></g></svg>