<svg xmlns="http://www.w3.org/2000/svg" xmlns:xlink="http://www.w3.org/1999/xlink" width="100" zoomAndPan="magnify" viewBox="0 0 75 74.999997" height="100" preserveAspectRatio="xMidYMid meet" version="1.0"><defs><clipPath id="1cd5df41d1"><path d="M 0 2.015625 L 75 2.015625 L 75 40 L 0 40 Z M 0 2.015625 " clip-rule="nonzero"/></clipPath></defs><path fill="#284b63" d="M 63.832031 38.089844 Z M 63.832031 38.089844 L 37.507812 14.777344 L 11.171875 38.101562 L 11.171875 71.421875 C 11.171875 72.285156 11.867188 72.976562 12.726562 72.976562 L 29.1875 72.976562 L 29.1875 58.363281 C 29.1875 57.503906 29.875 56.808594 30.738281 56.808594 L 44.261719 56.808594 C 45.121094 56.808594 45.8125 57.503906 45.8125 58.363281 L 45.8125 72.976562 L 62.277344 72.976562 C 63.136719 72.976562 63.828125 72.285156 63.828125 71.421875 L 63.828125 38.089844 Z M 11.171875 38.101562 Z M 11.171875 38.101562 " fill-opacity="1" fill-rule="nonzero"/><g clip-path="url(#1cd5df41d1)"><path fill="#284b63" d="M 37.355469 2.019531 L 0 35.097656 L 3.933594 39.535156 L 37.507812 9.804688 L 71.074219 39.535156 L 75 35.097656 L 37.652344 2.019531 L 37.507812 2.1875 Z M 37.355469 2.019531 " fill-opacity="1" fill-rule="nonzero"/></g><path fill="#284b63" d="M 11.171875 6.78125 L 20.640625 6.78125 L 20.558594 12.390625 L 11.171875 20.871094 Z M 11.171875 6.78125 " fill-opacity="1" fill-rule="nonzero"/></svg>